# xmcd CD database file
#
# Track frame offsets:
#	150
#	29405
#	51520
#	78963
#	115270
#	141535
#	170113
#	203500
#	239654
#	267281
#	300815
#
# Disc length: 4554 seconds
#
# Revision: 0
# Processed by: cddbd v1.5.2PL0 Copyright (c) Steve Scherf et al.
# Submitted via: CDex 1.51
#
DISCID=9a11c80b
DTITLE=Grant Green - The Classic Album Collection [Disk 3/4]
DYEAR=2017
DGENRE=Jazz
TTITLE0=Someday My Prince Will Come
TTITLE1=Born To Be Blue
TTITLE2=If I Should Lose You
TTITLE3=Back In Your Own Back Yard
TTITLE4=My One And Only Love
TTITLE5=Count Every Star
TTITLE6=Just A Closer Walk With Thee
TTITLE7=Joshua Fit The Battle Of Jericho
TTITLE8=Nobody Knows The Trouble I´ve Seen
TTITLE9=Go Down Moses
TTITLE10=Sometimes I Feel Like A Motherless Child
EXTD=YEAR: 2017
EXTT0=
EXTT1=
EXTT2=
EXTT3=
EXTT4=
EXTT5=
EXTT6=
EXTT7=
EXTT8=
EXTT9=
EXTT10=
PLAYORDER=
